<svg xmlns="http://www.w3.org/2000/svg" width="16" height="16" viewBox="0 0 16 16"><g fill="none" fill-rule="evenodd"><polyline stroke="currentColor" points="6 2.5 2.5 2.5 2.5 6"/><polyline stroke="currentColor" points="6 10 2.5 10 2.5 13.5" transform="matrix(1 0 0 -1 0 23.5)"/><polyline stroke="currentColor" points="13.5 2.5 10 2.5 10 6" transform="matrix(-1 0 0 1 23.5 0)"/><polyline stroke="currentColor" points="13.5 10 10 10 10 13.5" transform="rotate(180 11.75 11.75)"/><path fill="currentColor" fill-rule="nonzero" d="M8,5 C9.65685425,5 11,6.34314575 11,8 C11,9.65685425 9.65685425,11 8,11 C6.34314575,11 5,9.65685425 5,8 C5,6.34314575 6.34314575,5 8,5 Z M8,6 C6.8954305,6 6,6.8954305 6,8 C6,9.1045695 6.8954305,10 8,10 C9.1045695,10 10,9.1045695 10,8 C10,6.8954305 9.1045695,6 8,6 Z"/></g></svg>