<svg xmlns="http://www.w3.org/2000/svg" width="16" height="16" viewBox="0 0 16 16"><g fill="none" fill-rule="evenodd"><path fill="currentColor" fill-rule="nonzero" d="M8,3 C10.6666667,3 13.3333333,4.66666667 16,8 C13,11.3333333 10.3333333,13 8,13 C5.66666667,13 3,11.3333333 0,8 C2.66666667,4.66666667 5.33333333,3 8,3 Z M8,4 C5.91709834,4 3.75664342,5.22010297 1.52673344,7.73743358 L1.328,7.964 L1.58024504,8.22554387 C3.96413493,10.6700446 6.05194688,11.9066624 7.79983199,11.9949105 L8,12 C9.78789019,12 11.944177,10.7640639 14.419755,8.22554387 L14.671,7.964 L14.4732666,7.73743358 C12.3259458,5.31333744 10.2430306,4.09215746 8.23175226,4.00502492 L8,4 Z"/><path fill="currentColor" fill-rule="nonzero" d="M8,5 C9.65685425,5 11,6.34314575 11,8 C11,9.65685425 9.65685425,11 8,11 C6.34314575,11 5,9.65685425 5,8 C5,6.34314575 6.34314575,5 8,5 Z M8,6 C6.8954305,6 6,6.8954305 6,8 C6,9.1045695 6.8954305,10 8,10 C9.1045695,10 10,9.1045695 10,8 C10,6.8954305 9.1045695,6 8,6 Z"/></g></svg>